<svg width="33" height="25" viewBox="0 0 33 25" fill="none" xmlns="http://www.w3.org/2000/svg">
<path d="M32.0264 11.774C30.5765 5.21906 28.3945 1.72043 25.1577 0.764764C24.4773 0.565187 23.7715 0.465481 23.0625 0.468768C22.1253 0.468768 21.309 0.697088 20.4457 0.93908C19.4052 1.23097 18.2233 1.56252 16.5 1.56252C14.7766 1.56252 13.594 1.23166 12.5515 0.939764C11.6875 0.697088 10.8719 0.468768 9.93747 0.468768C9.20426 0.466225 8.47426 0.565614 7.76842 0.76408C4.5487 1.71564 2.36803 5.21291 0.89694 11.7699C-0.684896 18.826 0.0937174 23.281 3.08034 24.3146C3.48973 24.4589 3.92048 24.5333 4.35456 24.5347C6.40055 24.5347 8.04118 22.8305 9.16227 21.4353C10.429 19.8562 11.9117 19.055 16.5 19.055C20.5981 19.055 22.2941 19.6108 23.759 21.4353C24.6798 22.5823 25.5501 23.3849 26.4182 23.8901C27.5728 24.5613 28.7267 24.7104 29.8471 24.3255C31.6122 23.7233 32.6239 22.1312 32.8549 19.5923C33.0306 17.6454 32.7599 15.0881 32.0264 11.774ZM13.2187 11.4063H11.0312V13.5938C11.0312 13.8838 10.916 14.162 10.7109 14.3672C10.5057 14.5723 10.2275 14.6875 9.93747 14.6875C9.64739 14.6875 9.36919 14.5723 9.16407 14.3672C8.95895 14.162 8.84372 13.8838 8.84372 13.5938V11.4063H6.65622C6.36614 11.4063 6.08794 11.291 5.88282 11.0859C5.6777 10.8808 5.56247 10.6026 5.56247 10.3125C5.56247 10.0224 5.6777 9.74424 5.88282 9.53912C6.08794 9.334 6.36614 9.21877 6.65622 9.21877H8.84372V7.03127C8.84372 6.74119 8.95895 6.46299 9.16407 6.25787C9.36919 6.05275 9.64739 5.93752 9.93747 5.93752C10.2275 5.93752 10.5057 6.05275 10.7109 6.25787C10.916 6.46299 11.0312 6.74119 11.0312 7.03127V9.21877H13.2187C13.5088 9.21877 13.787 9.334 13.9921 9.53912C14.1972 9.74424 14.3125 10.0224 14.3125 10.3125C14.3125 10.6026 14.1972 10.8808 13.9921 11.0859C13.787 11.291 13.5088 11.4063 13.2187 11.4063ZM18.9609 11.6797C18.6905 11.6797 18.4262 11.5995 18.2013 11.4493C17.9765 11.2991 17.8013 11.0855 17.6978 10.8357C17.5943 10.5859 17.5672 10.311 17.62 10.0458C17.6727 9.78058 17.803 9.53697 17.9942 9.34577C18.1854 9.15457 18.429 9.02435 18.6942 8.9716C18.9594 8.91885 19.2343 8.94592 19.4841 9.0494C19.7339 9.15288 19.9475 9.32812 20.0977 9.55295C20.2479 9.77778 20.3281 10.0421 20.3281 10.3125C20.3281 10.6751 20.184 11.0229 19.9277 11.2793C19.6713 11.5357 19.3235 11.6797 18.9609 11.6797V11.6797ZM21.9687 14.6875C21.6982 14.6875 21.4337 14.6072 21.2088 14.4569C20.9839 14.3065 20.8087 14.0928 20.7053 13.8427C20.6019 13.5927 20.575 13.3176 20.6281 13.0523C20.6811 12.787 20.8116 12.5434 21.0032 12.3524C21.1947 12.1613 21.4387 12.0314 21.7041 11.979C21.9695 11.9266 22.2445 11.9542 22.4943 12.0582C22.744 12.1622 22.9573 12.338 23.1072 12.5633C23.257 12.7885 23.3366 13.0532 23.3359 13.3237C23.335 13.6858 23.1906 14.0326 22.9343 14.2883C22.678 14.5439 22.3307 14.6875 21.9687 14.6875V14.6875ZM21.9687 8.67189C21.6983 8.67189 21.434 8.59171 21.2091 8.44148C20.9843 8.29125 20.8091 8.07773 20.7056 7.82791C20.6021 7.57808 20.575 7.30319 20.6278 7.03798C20.6806 6.77277 20.8108 6.52916 21.002 6.33796C21.1932 6.14675 21.4368 6.01654 21.702 5.96379C21.9672 5.91103 22.2421 5.93811 22.4919 6.04159C22.7417 6.14507 22.9553 6.3203 23.1055 6.54514C23.2557 6.76997 23.3359 7.0343 23.3359 7.30471C23.3359 7.66731 23.1919 8.01506 22.9355 8.27145C22.6791 8.52785 22.3313 8.67189 21.9687 8.67189ZM24.9765 11.6797C24.7061 11.6797 24.4418 11.5995 24.217 11.4493C23.9921 11.2991 23.8169 11.0855 23.7134 10.8357C23.6099 10.5859 23.5829 10.311 23.6356 10.0458C23.6884 9.78058 23.8186 9.53697 24.0098 9.34577C24.201 9.15457 24.4446 9.02435 24.7098 8.9716C24.975 8.91885 25.2499 8.94592 25.4997 9.0494C25.7495 9.15288 25.9631 9.32812 26.1133 9.55295C26.2635 9.77778 26.3437 10.0421 26.3437 10.3125C26.3437 10.6751 26.1997 11.0229 25.9433 11.2793C25.6869 11.5357 25.3391 11.6797 24.9765 11.6797V11.6797Z" fill="white"/>
</svg>
