<svg width="28" height="27" viewBox="0 0 28 27" fill="none" xmlns="http://www.w3.org/2000/svg">
<path d="M27.4148 5.45068L20.7634 9.54882L14.3855 1.0415C14.3598 1.00726 14.3266 0.979466 14.2883 0.960323C14.25 0.94118 14.2078 0.931213 14.165 0.931213C14.1222 0.931213 14.08 0.94118 14.0418 0.960323C14.0035 0.979466 13.9702 1.00726 13.9446 1.0415L7.57006 9.54882L0.915279 5.45068C0.720455 5.33105 0.467525 5.4917 0.498287 5.7207L3.10961 25.5654C3.14721 25.8354 3.37963 26.0439 3.65649 26.0439H24.6804C24.9539 26.0439 25.1897 25.8389 25.2239 25.5654L27.8352 5.7207C27.8625 5.4917 27.613 5.33105 27.4148 5.45068ZM14.1667 21.0947C12.0442 21.0947 10.3181 19.3687 10.3181 17.2461C10.3181 15.1235 12.0442 13.3975 14.1667 13.3975C16.2893 13.3975 18.0154 15.1235 18.0154 17.2461C18.0154 19.3687 16.2893 21.0947 14.1667 21.0947ZM14.1667 15.5952C13.2576 15.5952 12.5193 16.3335 12.5193 17.2461C12.5193 18.1553 13.2576 18.897 14.1667 18.897C15.0759 18.897 15.8142 18.1587 15.8142 17.2461C15.8142 16.3369 15.0759 15.5952 14.1667 15.5952Z" fill="white"/>
</svg>
