<svg width="31" height="31" viewBox="0 0 31 31" fill="none" xmlns="http://www.w3.org/2000/svg">
<path d="M15.5 0.916687C7.44996 0.916687 0.916626 7.45002 0.916626 15.5C0.916626 23.55 7.44996 30.0834 15.5 30.0834C23.55 30.0834 30.0833 23.55 30.0833 15.5C30.0833 7.45002 23.55 0.916687 15.5 0.916687ZM15.5 5.29169C17.9208 5.29169 19.875 7.24585 19.875 9.66669C19.875 12.0875 17.9208 14.0417 15.5 14.0417C13.0791 14.0417 11.125 12.0875 11.125 9.66669C11.125 7.24585 13.0791 5.29169 15.5 5.29169ZM15.5 26C13.7673 26 12.0615 25.5712 10.5347 24.7519C9.008 23.9325 7.70776 22.7481 6.74996 21.3042C6.79371 18.4021 12.5833 16.8125 15.5 16.8125C18.402 16.8125 24.2062 18.4021 24.25 21.3042C23.2922 22.7481 21.9919 23.9325 20.4652 24.7519C18.9384 25.5712 17.2327 26 15.5 26Z" fill="white"/>
</svg>
