<svg width="28" height="29" viewBox="0 0 28 29" fill="none" xmlns="http://www.w3.org/2000/svg">
<path d="M1.802 27.5566C1.802 28.1616 2.29077 28.6504 2.89575 28.6504H12.6711V15.7988H1.802V27.5566ZM14.9954 28.6504H24.7708C25.3757 28.6504 25.8645 28.1616 25.8645 27.5566V15.7988H14.9954V28.6504ZM26.4114 7.5957H21.3665C21.8313 6.86426 22.1047 5.99609 22.1047 5.06641C22.1047 2.46533 19.989 0.349609 17.3879 0.349609C15.9729 0.349609 14.698 0.978515 13.8333 1.96973C12.9685 0.978515 11.6936 0.349609 10.2786 0.349609C7.67749 0.349609 5.56177 2.46533 5.56177 5.06641C5.56177 5.99609 5.83179 6.86426 6.30005 7.5957H1.25513C0.650146 7.5957 0.161377 8.08447 0.161377 8.68945V13.4746H12.6711V7.5957H14.9954V13.4746H27.5051V8.68945C27.5051 8.08447 27.0164 7.5957 26.4114 7.5957ZM12.6711 7.45898H10.2786C8.95923 7.45898 7.88599 6.38574 7.88599 5.06641C7.88599 3.74707 8.95923 2.67383 10.2786 2.67383C11.5979 2.67383 12.6711 3.74707 12.6711 5.06641V7.45898ZM17.3879 7.45898H14.9954V5.06641C14.9954 3.74707 16.0686 2.67383 17.3879 2.67383C18.7073 2.67383 19.7805 3.74707 19.7805 5.06641C19.7805 6.38574 18.7073 7.45898 17.3879 7.45898Z" fill="white"/>
</svg>
