<svg width="20" height="20" viewBox="0 0 20 20" fill="none" xmlns="http://www.w3.org/2000/svg">
<path d="M10 0.375C4.68477 0.375 0.375 4.68477 0.375 10C0.375 15.3152 4.68477 19.625 10 19.625C15.3152 19.625 19.625 15.3152 19.625 10C19.625 4.68477 15.3152 0.375 10 0.375ZM14.125 10.5156C14.125 10.6102 14.0477 10.6875 13.9531 10.6875H10.6875V13.9531C10.6875 14.0477 10.6102 14.125 10.5156 14.125H9.48438C9.38984 14.125 9.3125 14.0477 9.3125 13.9531V10.6875H6.04688C5.95234 10.6875 5.875 10.6102 5.875 10.5156V9.48438C5.875 9.38984 5.95234 9.3125 6.04688 9.3125H9.3125V6.04688C9.3125 5.95234 9.38984 5.875 9.48438 5.875H10.5156C10.6102 5.875 10.6875 5.95234 10.6875 6.04688V9.3125H13.9531C14.0477 9.3125 14.125 9.38984 14.125 9.48438V10.5156Z" fill="white"/>
</svg>
