<svg width="20" height="20" viewBox="0 0 20 20" fill="none" xmlns="http://www.w3.org/2000/svg">
<path d="M7.02112 5.99177L9.23112 1.57177C9.48112 1.06177 10.0911 0.85177 10.6011 1.11177C10.8011 1.21177 10.9611 1.38177 11.0611 1.58177L13.1411 5.84177C13.3111 6.18177 13.6411 6.42177 14.0211 6.47177L18.3811 6.99177C18.9711 7.07177 19.4011 7.61177 19.3311 8.21177C19.3011 8.45177 19.1911 8.68177 19.0111 8.86177L15.5611 12.2818C15.4211 12.4118 15.3611 12.6118 15.3811 12.8118L15.9511 17.4218C16.0411 18.0818 15.5711 18.6918 14.9211 18.7718C14.6711 18.8018 14.4211 18.7518 14.2011 18.6318L10.5611 16.6318C10.3011 16.4918 9.98112 16.4818 9.71112 16.6218L5.94112 18.5718C5.41112 18.8418 4.76112 18.6318 4.49112 18.0918C4.38112 17.8918 4.35112 17.6618 4.38112 17.4418L4.68112 15.3218C4.83112 14.2818 5.47112 13.3918 6.39112 12.9118L10.5811 10.7618C10.6911 10.7018 10.7311 10.5618 10.6811 10.4518C10.6311 10.3618 10.5411 10.3118 10.4411 10.3318L5.32112 11.0718C4.54112 11.1818 3.74112 10.9618 3.13112 10.4518L1.42112 9.05177C0.931124 8.65177 0.861124 7.93177 1.25112 7.43177C1.44112 7.21177 1.70112 7.06177 1.99112 7.02177L6.37112 6.45177C6.65112 6.42177 6.89112 6.24177 7.02112 5.99177V5.99177Z" fill="url(#paint0_linear_112_2212)"/>
<g filter="url(#filter0_i_112_2212)">
<path d="M7.02112 5.99177L9.23112 1.57177C9.48112 1.06177 10.0911 0.85177 10.6011 1.11177C10.8011 1.21177 10.9611 1.38177 11.0611 1.58177L13.1411 5.84177C13.3111 6.18177 13.6411 6.42177 14.0211 6.47177L18.3811 6.99177C18.9711 7.07177 19.4011 7.61177 19.3311 8.21177C19.3011 8.45177 19.1911 8.68177 19.0111 8.86177L15.5611 12.2818C15.4211 12.4118 15.3611 12.6118 15.3811 12.8118L15.9511 17.4218C16.0411 18.0818 15.5711 18.6918 14.9211 18.7718C14.6711 18.8018 14.4211 18.7518 14.2011 18.6318L10.5611 16.6318C10.3011 16.4918 9.98112 16.4818 9.71112 16.6218L5.94112 18.5718C5.41112 18.8418 4.76112 18.6318 4.49112 18.0918C4.38112 17.8918 4.35112 17.6618 4.38112 17.4418L4.68112 15.3218C4.83112 14.2818 5.47112 13.3918 6.39112 12.9118L10.5811 10.7618C10.6911 10.7018 10.7311 10.5618 10.6811 10.4518C10.6311 10.3618 10.5411 10.3118 10.4411 10.3318L5.32112 11.0718C4.54112 11.1818 3.74112 10.9618 3.13112 10.4518L1.42112 9.05177C0.931124 8.65177 0.861124 7.93177 1.25112 7.43177C1.44112 7.21177 1.70112 7.06177 1.99112 7.02177L6.37112 6.45177C6.65112 6.42177 6.89112 6.24177 7.02112 5.99177V5.99177Z" fill="#FFC53A"/>
</g>
<path d="M7.02112 5.99177L9.23112 1.57177C9.48112 1.06177 10.0911 0.85177 10.6011 1.11177C10.8011 1.21177 10.9611 1.38177 11.0611 1.58177L13.1411 5.84177C13.3111 6.18177 13.6411 6.42177 14.0211 6.47177L18.3811 6.99177C18.9711 7.07177 19.4011 7.61177 19.3311 8.21177C19.3011 8.45177 19.1911 8.68177 19.0111 8.86177L15.5611 12.2818C15.4211 12.4118 15.3611 12.6118 15.3811 12.8118L15.9511 17.4218C16.0411 18.0818 15.5711 18.6918 14.9211 18.7718C14.6711 18.8018 14.4211 18.7518 14.2011 18.6318L10.5611 16.6318C10.3011 16.4918 9.98112 16.4818 9.71112 16.6218L5.94112 18.5718C5.41112 18.8418 4.76112 18.6318 4.49112 18.0918C4.38112 17.8918 4.35112 17.6618 4.38112 17.4418L4.68112 15.3218C4.83112 14.2818 5.47112 13.3918 6.39112 12.9118L10.5811 10.7618C10.6911 10.7018 10.7311 10.5618 10.6811 10.4518C10.6311 10.3618 10.5411 10.3118 10.4411 10.3318L5.32112 11.0718C4.54112 11.1818 3.74112 10.9618 3.13112 10.4518L1.42112 9.05177C0.931124 8.65177 0.861124 7.93177 1.25112 7.43177C1.44112 7.21177 1.70112 7.06177 1.99112 7.02177L6.37112 6.45177C6.65112 6.42177 6.89112 6.24177 7.02112 5.99177V5.99177Z" stroke="url(#paint1_linear_112_2212)" stroke-width="0.89"/>
<defs>
<filter id="filter0_i_112_2212" x="1" y="1" width="19.3386" height="18.7803" filterUnits="userSpaceOnUse" color-interpolation-filters="sRGB">
<feFlood flood-opacity="0" result="BackgroundImageFix"/>
<feBlend mode="normal" in="SourceGraphic" in2="BackgroundImageFix" result="shape"/>
<feColorMatrix in="SourceAlpha" type="matrix" values="0 0 0 0 0 0 0 0 0 0 0 0 0 0 0 0 0 0 127 0" result="hardAlpha"/>
<feOffset dx="1" dy="1"/>
<feGaussianBlur stdDeviation="2"/>
<feComposite in2="hardAlpha" operator="arithmetic" k2="-1" k3="1"/>
<feColorMatrix type="matrix" values="0 0 0 0 1 0 0 0 0 1 0 0 0 0 1 0 0 0 0.657 0"/>
<feBlend mode="normal" in2="shape" result="effect1_innerShadow_112_2212"/>
</filter>
<linearGradient id="paint0_linear_112_2212" x1="459.465" y1="15.6687" x2="1329.35" y2="1939.39" gradientUnits="userSpaceOnUse">
<stop stop-color="#FFD951"/>
<stop offset="1" stop-color="#FFB222"/>
</linearGradient>
<linearGradient id="paint1_linear_112_2212" x1="917.93" y1="1" x2="917.93" y2="1775.47" gradientUnits="userSpaceOnUse">
<stop stop-color="#E58F0D"/>
<stop offset="0.9996" stop-color="#EB7915"/>
</linearGradient>
</defs>
</svg>
