<svg width="20" height="20" viewBox="0 0 20 20" fill="none" xmlns="http://www.w3.org/2000/svg">
<g clip-path="url(#clip0_112_2217)">
<path d="M10 20C15.5357 20 20 15.5357 20 10C20 4.46429 15.5357 0 10 0C4.46429 0 0 4.46429 0 10C0 15.5357 4.46429 20 10 20Z" fill="#0098EA"/>
<path d="M13.4285 5.57143H6.57138C5.32138 5.57143 4.53566 6.92857 5.14281 8.03571L9.35709 15.3571C9.64281 15.8214 10.3214 15.8214 10.6071 15.3571L14.8214 8.03571C15.4642 6.92857 14.6785 5.57143 13.4285 5.57143ZM9.39281 13.1429L8.46424 11.3571L6.24995 7.39286C6.10709 7.14286 6.28566 6.82143 6.60709 6.82143H9.39281V13.1429ZM13.7499 7.39286L11.5357 11.3571L10.6071 13.1429V6.82143H13.3928C13.7142 6.82143 13.8928 7.14286 13.7499 7.39286Z" fill="white"/>
</g>
<defs>
<clipPath id="clip0_112_2217">
<rect width="20" height="20" fill="white"/>
</clipPath>
</defs>
</svg>
