<svg width="10" height="10" viewBox="0 0 10 10" fill="none" xmlns="http://www.w3.org/2000/svg">
<path d="M9.11795 1.86797C9.45974 1.52618 9.45974 0.9711 9.11795 0.629303C8.77615 0.287506 8.22107 0.287506 7.87927 0.629303L4.99998 3.51133L2.11794 0.632037C1.77615 0.29024 1.22107 0.29024 0.879272 0.632037C0.537476 0.973834 0.537476 1.52891 0.879272 1.87071L3.7613 4.75001L0.882007 7.63204C0.54021 7.97383 0.54021 8.52891 0.882007 8.87071C1.2238 9.21251 1.77888 9.21251 2.12068 8.87071L4.99998 5.98868L7.88201 8.86798C8.2238 9.20977 8.77888 9.20977 9.12068 8.86798C9.46248 8.52618 9.46248 7.9711 9.12068 7.6293L6.23865 4.75001L9.11795 1.86797Z" fill="white"/>
</svg>
