<svg width="24" height="24" viewBox="0 0 24 24" fill="none" xmlns="http://www.w3.org/2000/svg">
<path d="M2.38095 23.384L8.90995 16.855C10.7833 18.2801 13.1281 18.9405 15.4698 18.7024C17.8116 18.4644 19.9755 17.3457 21.5238 15.5728C23.072 13.7999 23.8891 11.5051 23.8096 9.15258C23.7302 6.8001 22.7601 4.56563 21.0957 2.90123C19.4313 1.23683 17.1968 0.26677 14.8444 0.187304C12.4919 0.107837 10.1971 0.924899 8.42413 2.47319C6.65121 4.02147 5.53257 6.18539 5.29453 8.52714C5.0565 10.8689 5.71683 13.2136 7.14195 15.087L0.612948 21.616C0.382302 21.8525 0.253203 22.1697 0.253203 22.5C0.253203 22.8303 0.382302 23.1475 0.612948 23.384C0.847508 23.6182 1.16545 23.7498 1.49695 23.7498C1.82844 23.7498 2.14639 23.6182 2.38095 23.384ZM14.4999 2.75C15.835 2.75 17.14 3.14588 18.25 3.88758C19.3601 4.62928 20.2252 5.68349 20.7361 6.91689C21.247 8.15029 21.3807 9.50749 21.1202 10.8169C20.8598 12.1262 20.2169 13.329 19.2729 14.273C18.3289 15.217 17.1262 15.8598 15.8168 16.1203C14.5074 16.3808 13.1502 16.2471 11.9168 15.7362C10.6834 15.2253 9.62923 14.3601 8.88753 13.2501C8.14583 12.1401 7.74995 10.835 7.74995 9.5C7.75207 7.71044 8.4639 5.99478 9.72932 4.72937C10.9947 3.46396 12.7104 2.75212 14.4999 2.75Z" fill="#BCBCBC"/>
</svg>
