<svg width="17" height="16" viewBox="0 0 17 16" fill="none" xmlns="http://www.w3.org/2000/svg">
<g clip-path="url(#clip0_97_4319)">
<path d="M16.8281 2.5C16.8281 3.0625 16.3813 3.58125 15.6281 4C14.7188 4.50313 13.3625 4.85938 11.8062 4.96562C11.6906 4.90937 11.575 4.85625 11.4531 4.80937C10.2219 4.29375 8.58437 4 6.82812 4C6.56875 4 6.31563 4.00625 6.0625 4.01875L6.02812 4C5.275 3.58125 4.82812 3.0625 4.82812 2.5C4.82812 1.11875 7.51562 0 10.8281 0C14.1406 0 16.8281 1.11875 16.8281 2.5ZM5.85 5.03438C6.16875 5.0125 6.49687 5 6.82812 5C8.77187 5 10.4969 5.38437 11.5938 5.98125C12.3687 6.40312 12.8281 6.92812 12.8281 7.5C12.8281 7.625 12.8062 7.74687 12.7625 7.86562C12.6187 8.27812 12.2312 8.65625 11.6687 8.975C11.6656 8.97813 11.6594 8.97812 11.6562 8.98125C11.6469 8.9875 11.6375 8.99062 11.6281 8.99687C10.5344 9.60312 8.79063 9.99687 6.82812 9.99687C4.96562 9.99687 3.3 9.64375 2.19687 9.0875C2.1375 9.05937 2.08125 9.02812 2.025 8.99687C1.275 8.58125 0.828125 8.0625 0.828125 7.5C0.828125 6.4125 2.49688 5.48438 4.82812 5.14375C5.15625 5.09688 5.49687 5.05938 5.85 5.03438ZM13.8281 7.5C13.8281 6.81563 13.4969 6.25313 13.075 5.83125C13.9594 5.69375 14.7688 5.475 15.4563 5.19063C15.9656 4.97813 16.4406 4.71563 16.8281 4.39375V5.5C16.8281 6.10313 16.3125 6.65937 15.4594 7.09062C15.0031 7.32187 14.4469 7.51875 13.8219 7.66875C13.825 7.6125 13.8281 7.55938 13.8281 7.50313V7.5ZM12.8281 10.5C12.8281 11.0625 12.3813 11.5813 11.6281 12C11.5719 12.0312 11.5156 12.0594 11.4563 12.0906C10.3562 12.6469 8.69063 13 6.82812 13C4.86562 13 3.12188 12.6062 2.02813 12C1.275 11.5813 0.828125 11.0625 0.828125 10.5V9.39375C1.21875 9.71562 1.69063 9.97813 2.2 10.1906C3.43438 10.7063 5.07188 11 6.82812 11C8.58437 11 10.2219 10.7063 11.4563 10.1906C11.7 10.0906 11.9344 9.975 12.1562 9.85C12.3469 9.74375 12.525 9.625 12.6938 9.5C12.7406 9.46562 12.7844 9.42813 12.8281 9.39375V9.5V9.67813V10.5ZM13.8281 10.5V9.5V8.69063C14.4219 8.55937 14.9688 8.39375 15.4563 8.19063C15.9656 7.97813 16.4406 7.71563 16.8281 7.39375V8.5C16.8281 8.82812 16.6719 9.15625 16.3625 9.46562C15.8531 9.975 14.9562 10.3937 13.8219 10.6656C13.825 10.6125 13.8281 10.5562 13.8281 10.5ZM6.82812 14C8.58437 14 10.2219 13.7063 11.4563 13.1906C11.9656 12.9781 12.4406 12.7156 12.8281 12.3938V13.5C12.8281 14.8813 10.1406 16 6.82812 16C3.51562 16 0.828125 14.8813 0.828125 13.5V12.3938C1.21875 12.7156 1.69063 12.9781 2.2 13.1906C3.43438 13.7063 5.07188 14 6.82812 14Z" fill="white"/>
</g>
<defs>
<clipPath id="clip0_97_4319">
<path d="M0.828125 0H16.8281V16H0.828125V0Z" fill="white"/>
</clipPath>
</defs>
</svg>
